<svg width="32" height="31" viewBox="0 0 32 31" fill="none" xmlns="http://www.w3.org/2000/svg">
<path d="M15.6425 0C7.00451 0 0 6.96437 0 15.5556C0 22.4286 4.48205 28.2595 10.6973 30.3164C11.4791 30.4604 11.7661 29.9789 11.7661 29.5681C11.7661 29.1972 11.7515 27.9717 11.7449 26.6719C7.39304 27.6129 6.47477 24.8365 6.47477 24.8365C5.76321 23.0385 4.73796 22.5605 4.73796 22.5605C3.31878 21.595 4.84494 21.6147 4.84494 21.6147C6.41576 21.7245 7.24288 23.2178 7.24288 23.2178C8.63801 25.596 10.9022 24.9084 11.7949 24.511C11.9352 23.5055 12.3407 22.8194 12.788 22.4309C9.31362 22.0375 5.66114 20.7037 5.66114 14.7432C5.66114 13.045 6.27222 11.6572 7.27293 10.5679C7.1105 10.176 6.57512 8.59393 7.42445 6.45124C7.42445 6.45124 8.738 6.03315 11.7273 8.04578C12.9749 7.70101 14.3131 7.52826 15.6425 7.5224C16.9719 7.52826 18.3111 7.70101 19.5612 8.04578C22.5469 6.03315 23.8586 6.45124 23.8586 6.45124C24.71 8.59393 24.1744 10.176 24.012 10.5679C25.0149 11.6572 25.6218 13.0449 25.6218 14.7432C25.6218 20.7178 21.9625 22.0335 18.4793 22.4185C19.0403 22.9012 19.5402 23.848 19.5402 25.2991C19.5402 27.3805 19.5221 29.0557 19.5221 29.5681C19.5221 29.982 19.8036 30.4671 20.5966 30.3143C26.8085 28.2551 31.2849 22.4263 31.2849 15.5556C31.2849 6.96437 24.2814 0 15.6425 0Z" fill="white"/>
</svg>
