<svg width="10" height="10" viewBox="0 0 10 10" fill="none" xmlns="http://www.w3.org/2000/svg">
<path fill-rule="evenodd" clip-rule="evenodd" d="M4.73684 0C2.13158 0 0 2.25 0 5C0 7.75 2.13158 10 4.73684 10C7.34211 10 9.47368 7.75 9.47368 5C9.47368 2.25 7.36579 0 4.73684 0ZM6.91579 7.225C6.82105 7.375 6.65526 7.425 6.51316 7.325C5.4 6.6 4.00263 6.45 2.34474 6.85C2.17895 6.9 2.03684 6.775 1.98947 6.625C1.94211 6.45 2.06053 6.3 2.20263 6.25C4.00263 5.825 5.56579 6 6.79737 6.8C6.96316 6.875 6.98684 7.075 6.91579 7.225ZM7.48421 5.85C7.36579 6.025 7.15263 6.1 6.98684 5.975C5.7079 5.15 3.76579 4.9 2.27368 5.4C2.08421 5.45 1.87105 5.35 1.82368 5.15C1.77632 4.95 1.87105 4.725 2.06053 4.675C3.78947 4.125 5.92105 4.4 7.38947 5.35C7.53158 5.425 7.60263 5.675 7.48421 5.85ZM7.53158 4.45C6.01579 3.5 3.48158 3.4 2.03684 3.875C1.8 3.95 1.56316 3.8 1.49211 3.575C1.42105 3.325 1.56316 3.075 1.77632 3C3.45789 2.475 6.22895 2.575 7.98158 3.675C8.19474 3.8 8.26579 4.1 8.14737 4.325C8.02895 4.5 7.74474 4.575 7.53158 4.45Z" fill="#10BC4C"/>
</svg>
